<svg xmlns="http://www.w3.org/2000/svg" width="25" height="20.745" fillRule="evenodd" clipRule="evenodd"
  imageRendering="optimizeQuality" shapeRendering="geometricPrecision" textRendering="geometricPrecision" version="1.1"
  viewBox="0 0 2.6 2.169" xmlSpace="preserve">
  <g transform="translate(-.007)">
    <g fill="#000" transform="scale(.01854)">
      <path fill="#000"
        d="M134 46c-4 0-7 3-7 7v49H15V53c0-4-4-7-8-7s-7 3-7 7v56c0 2 1 4 2 5 1 2 3 3 5 3h127c2 0 4-1 5-3 2-1 2-3 2-5V53c0-4-3-7-7-7z"
        className="fil0"></path>
      <path fill="#000"
        d="M51 37l13-7v57c0 3 3 7 7 7s7-4 7-7V30l15 7c2 1 5 0 6-1 1-2 1-5 0-6L75 2c-1-1-2-2-4-2-1 0-2 1-3 2L46 30c-2 1-2 4 0 6 1 1 3 2 5 1z"
        className="fil0"></path>
    </g>
  </g>
</svg>